<svg width="467" height="315" viewBox="0 0 467 315" fill="none" xmlns="http://www.w3.org/2000/svg">
<path d="M346.116 249.972H117.242C115.094 249.972 113.337 248.317 113.337 246.294V107.967C113.337 105.944 115.094 104.288 117.242 104.288H346.116C348.264 104.288 350.022 105.944 350.022 107.967V246.294C350.022 248.317 348.264 249.972 346.116 249.972Z" fill="#7B70EE"/>
<path d="M344.163 114.882H119.195V235.844H344.163V114.882Z" fill="#D5CBFB"/>
<path d="M233.094 109.151C233.094 109.887 232.46 110.483 231.679 110.483C230.897 110.483 230.265 109.886 230.265 109.151C230.265 108.415 230.898 107.818 231.679 107.818C232.46 107.819 233.094 108.415 233.094 109.151Z" fill="#D5CBFB"/>
<path d="M381.878 297.507L352.805 253.924C351.164 251.464 348.297 249.971 345.213 249.971H226.612H220.051H118.147C115.063 249.971 112.195 251.464 110.554 253.924L81.4817 297.507C80.6591 298.741 80.3662 300.207 80.6234 301.624H382.735C382.992 300.208 382.7 298.741 381.878 297.507Z" fill="#D5CBFB"/>
<path d="M80.6234 301.625C80.6764 301.917 80.7445 302.207 80.845 302.492L81.3033 303.787C82.1529 306.187 84.5363 307.805 87.2214 307.805H220.049H226.611H376.136C378.821 307.805 381.205 306.186 382.054 303.787L382.512 302.492C382.613 302.207 382.681 301.916 382.734 301.625H80.6234Z" fill="#7B70EE"/>
<path d="M129.085 271.48L130.501 268.547H123.496L121.997 271.48H129.085Z" fill="#7B70EE"/>
<path d="M141.426 263.129L142.121 261.599L142.758 260.195H135.979L134.563 263.129H141.426Z" fill="#7B70EE"/>
<path d="M131.949 268.547L130.534 271.48H137.638L138.968 268.547H131.949Z" fill="#7B70EE"/>
<path d="M131.1 267.304L132.516 264.37H125.631L124.131 267.304H131.1Z" fill="#7B70EE"/>
<path d="M273.733 260.195L274.517 263.129H280.541L279.674 260.195H273.733Z" fill="#7B70EE"/>
<path d="M165.646 268.547L164.695 271.48H171.857L172.768 268.547H165.646Z" fill="#7B70EE"/>
<path d="M157.27 268.547L156.149 271.48H163.317L164.268 268.547H157.27Z" fill="#7B70EE"/>
<path d="M148.856 268.547L147.608 271.48H154.749L155.87 268.547H148.856Z" fill="#7B70EE"/>
<path d="M140.402 268.547L139.071 271.48H146.188L147.435 268.547H140.402Z" fill="#7B70EE"/>
<path d="M281.043 260.195L281.91 263.129H287.538L286.627 260.195H281.043Z" fill="#7B70EE"/>
<path d="M189.87 264.37L189.087 267.304H194.751L195.45 264.37H189.87Z" fill="#7B70EE"/>
<path d="M251.321 260.195L251.851 263.129H258.387L257.772 260.195H251.321Z" fill="#7B70EE"/>
<path d="M188.842 263.129L189.626 260.195H183.685L182.817 263.129H188.842Z" fill="#7B70EE"/>
<path d="M181.448 263.129L182.316 260.195H176.732L175.821 263.129H181.448Z" fill="#7B70EE"/>
<path d="M195.746 263.129L196.445 260.195H190.985L190.202 263.129H195.746Z" fill="#7B70EE"/>
<path d="M288 260.195L288.911 263.129H295.954L295 260.195H288Z" fill="#7B70EE"/>
<path d="M160.46 260.195L159.339 263.129H166.027L166.519 261.615L166.979 260.195H160.46Z" fill="#7B70EE"/>
<path d="M157.938 263.129L159.059 260.195H152.405L151.159 263.129H157.938Z" fill="#7B70EE"/>
<path d="M144.192 260.195L142.861 263.129H149.739L150.387 261.602L150.985 260.195H144.192Z" fill="#7B70EE"/>
<path d="M266.914 260.195L267.612 263.129H273.157L272.374 260.195H266.914Z" fill="#7B70EE"/>
<path d="M259.116 260.195L259.731 263.129H266.261L265.563 260.195H259.116Z" fill="#7B70EE"/>
<path d="M174.447 263.129L175.359 260.195H168.358L167.405 263.129H174.447Z" fill="#7B70EE"/>
<path d="M182.684 258.953L183.492 256.222H177.964L177.116 258.953H182.684Z" fill="#7B70EE"/>
<path d="M175.743 258.953L176.591 256.222H169.648L168.761 258.953H175.743Z" fill="#7B70EE"/>
<path d="M243.624 260.195L243.987 263.129H250.514L249.984 260.195H243.624Z" fill="#7B70EE"/>
<path d="M204.503 258.953L205.075 256.222H198.745L198.094 258.953H204.503Z" fill="#7B70EE"/>
<path d="M196.742 258.953L197.393 256.222H192.046L191.317 258.953H196.742Z" fill="#7B70EE"/>
<path d="M189.957 258.953L190.686 256.222H184.861L184.052 258.953H189.957Z" fill="#7B70EE"/>
<path d="M320.601 260.195L321.932 263.129H328.796L327.38 260.195H320.601Z" fill="#7B70EE"/>
<path d="M143.322 258.953L144.562 256.222H137.896L136.578 258.953H143.322Z" fill="#7B70EE"/>
<path d="M151.513 258.953L152.674 256.222H145.995L144.755 258.953H151.513Z" fill="#7B70EE"/>
<path d="M167.382 258.953L168.269 256.222H161.978L160.935 258.953H167.382Z" fill="#7B70EE"/>
<path d="M328.828 260.195L330.244 263.129H337.093L335.593 260.195H328.828Z" fill="#7B70EE"/>
<path d="M159.534 258.953L160.577 256.222H154.095L152.934 258.953H159.534Z" fill="#7B70EE"/>
<path d="M296.379 260.195L297.332 263.129H304.02L302.899 260.195H296.379Z" fill="#7B70EE"/>
<path d="M203.835 268.547L203.219 271.48H209.996L210.527 268.547H203.835Z" fill="#7B70EE"/>
<path d="M174.142 268.547L173.232 271.48H178.978L179.846 268.547H174.142Z" fill="#7B70EE"/>
<path d="M195.806 268.547L195.107 271.48H201.876L202.491 268.547H195.806Z" fill="#7B70EE"/>
<path d="M181.215 268.547L180.347 271.48H186.611L187.394 268.547H181.215Z" fill="#7B70EE"/>
<path d="M188.754 268.547L187.971 271.48H193.755L194.454 268.547H188.754Z" fill="#7B70EE"/>
<path d="M213.375 260.195L212.844 263.129H219.372L219.734 260.195H213.375Z" fill="#7B70EE"/>
<path d="M212.263 258.953L212.757 256.222H206.419L205.846 258.953H212.263Z" fill="#7B70EE"/>
<path d="M204.71 264.37L204.095 267.304H210.751L211.282 264.37H204.71Z" fill="#7B70EE"/>
<path d="M312.373 260.195L313.62 263.129H320.498L319.167 260.195H312.373Z" fill="#7B70EE"/>
<path d="M218.856 267.304L219.218 264.37H212.619L212.088 267.304H218.856Z" fill="#7B70EE"/>
<path d="M304.299 260.195L305.421 263.129H312.2L310.953 260.195H304.299Z" fill="#7B70EE"/>
<path d="M133.115 263.129L134.531 260.195H127.766L126.265 263.129H133.115Z" fill="#7B70EE"/>
<path d="M283.012 271.48L282.144 268.547H275.965L276.747 271.48H283.012Z" fill="#7B70EE"/>
<path d="M182.449 264.37L181.582 267.304H187.726L188.51 264.37H182.449Z" fill="#7B70EE"/>
<path d="M294.597 258.953L293.711 256.222H286.768L287.615 258.953H294.597Z" fill="#7B70EE"/>
<path d="M310.424 258.953L309.265 256.222H302.781L303.825 258.953H310.424Z" fill="#7B70EE"/>
<path d="M302.424 258.953L301.38 256.222H295.09L295.977 258.953H302.424Z" fill="#7B70EE"/>
<path d="M265.265 258.953L264.615 256.222H258.284L258.856 258.953H265.265Z" fill="#7B70EE"/>
<path d="M257.513 258.953L256.94 256.222H250.602L251.096 258.953H257.513Z" fill="#7B70EE"/>
<path d="M318.604 258.953L317.364 256.222H310.685L311.846 258.953H318.604Z" fill="#7B70EE"/>
<path d="M279.307 258.953L278.498 256.222H272.672L273.402 258.953H279.307Z" fill="#7B70EE"/>
<path d="M272.042 258.953L271.312 256.222H265.966L266.617 258.953H272.042Z" fill="#7B70EE"/>
<path d="M275.388 271.48L274.605 268.547H268.905L269.603 271.48H275.388Z" fill="#7B70EE"/>
<path d="M324.288 271.48L322.956 268.547H315.924L317.171 271.48H324.288Z" fill="#7B70EE"/>
<path d="M307.211 271.48L306.089 268.547H299.09L300.042 271.48H307.211Z" fill="#7B70EE"/>
<path d="M341.362 271.48L339.861 268.547H332.858L334.274 271.48H341.362Z" fill="#7B70EE"/>
<path d="M332.826 271.48L331.41 268.547H324.39L325.721 271.48H332.826Z" fill="#7B70EE"/>
<path d="M315.75 271.48L314.502 268.547H307.49L308.61 271.48H315.75Z" fill="#7B70EE"/>
<path d="M268.252 271.48L267.554 268.547H260.868L261.483 271.48H268.252Z" fill="#7B70EE"/>
<path d="M326.781 258.953L325.463 256.222H318.797L320.037 258.953H326.781Z" fill="#7B70EE"/>
<path d="M338.556 263.129H344.876L343.115 260.195H337.056L338.556 263.129Z" fill="#7B70EE"/>
<path d="M290.129 271.48L289.218 268.547H283.513L284.38 271.48H290.129Z" fill="#7B70EE"/>
<path d="M334.958 258.953L333.56 256.222H326.91L328.228 258.953H334.958Z" fill="#7B70EE"/>
<path d="M298.664 271.48L297.712 268.547H290.592L291.502 271.48H298.664Z" fill="#7B70EE"/>
<path d="M342.372 258.953L340.732 256.222H335.024L336.422 258.953H342.372Z" fill="#7B70EE"/>
<path d="M286.242 258.953L285.396 256.222H279.867L280.675 258.953H286.242Z" fill="#7B70EE"/>
<path d="M243.691 271.48L243.329 268.547H236.496L236.622 271.48H243.691Z" fill="#7B70EE"/>
<path d="M142.298 264.37L141.603 265.901L140.966 267.304H147.964L149.21 264.37H142.298Z" fill="#7B70EE"/>
<path d="M251.271 267.304L250.74 264.37H244.14L244.503 267.304H251.271Z" fill="#7B70EE"/>
<path d="M139.531 267.304L140.864 264.37H133.964L133.223 265.904L132.549 267.304H139.531Z" fill="#7B70EE"/>
<path d="M197.797 260.195L197.098 263.129H203.627L204.242 260.195H197.797Z" fill="#7B70EE"/>
<path d="M205.586 260.195L204.97 263.129H211.506L212.037 260.195H205.586Z" fill="#7B70EE"/>
<path d="M167.002 264.37L166.05 267.304H173.153L174.063 264.37H167.002Z" fill="#7B70EE"/>
<path d="M150.63 264.37L149.383 267.304H156.343L157.464 264.37H150.63Z" fill="#7B70EE"/>
<path d="M175.437 264.37L174.526 267.304H180.213L181.081 264.37H175.437Z" fill="#7B70EE"/>
<path d="M236.318 264.37L236.444 267.304H243.176L242.813 264.37H236.318Z" fill="#7B70EE"/>
<path d="M158.866 264.37L157.745 267.304H164.672L165.624 264.37H158.866Z" fill="#7B70EE"/>
<path d="M242.144 258.953L241.806 256.222H235.969L236.086 258.953H242.144Z" fill="#7B70EE"/>
<path d="M260.139 271.48L259.524 268.547H252.832L253.362 271.48H260.139Z" fill="#7B70EE"/>
<path d="M228.71 256.222L228.592 258.953H234.766L234.649 256.222H228.71Z" fill="#7B70EE"/>
<path d="M228.539 260.195L228.413 263.129H234.944L234.819 260.195H228.539Z" fill="#7B70EE"/>
<path d="M242.66 263.129L242.297 260.195H236.139L236.264 263.129H242.66Z" fill="#7B70EE"/>
<path d="M249.76 258.953L249.266 256.222H243.134L243.472 258.953H249.76Z" fill="#7B70EE"/>
<path d="M228.36 264.37L228.234 267.304H235.124L234.998 264.37H228.36Z" fill="#7B70EE"/>
<path d="M228.182 268.547L228.056 271.48H235.302L235.177 268.547H228.182Z" fill="#7B70EE"/>
<path d="M227.273 258.953L227.39 256.222H221.552L221.215 258.953H227.273Z" fill="#7B70EE"/>
<path d="M213.6 258.953H219.887L220.225 256.222H214.095L213.6 258.953Z" fill="#7B70EE"/>
<path d="M259.264 267.304L258.648 264.37H252.076L252.608 267.304H259.264Z" fill="#7B70EE"/>
<path d="M196.802 264.37L196.103 267.304H202.751L203.366 264.37H196.802Z" fill="#7B70EE"/>
<path d="M112.726 272.721L111.185 275.288H118.586L119.899 272.721H112.726Z" fill="#7B70EE"/>
<path d="M288.833 267.304L287.923 264.37H282.277L283.146 267.304H288.833Z" fill="#7B70EE"/>
<path d="M284.748 272.721L285.508 275.288H291.311L290.514 272.721H284.748Z" fill="#7B70EE"/>
<path d="M274.273 267.304L273.489 264.37H267.909L268.608 267.304H274.273Z" fill="#7B70EE"/>
<path d="M226.737 271.48L226.862 268.547H220.03L219.668 271.48H226.737Z" fill="#7B70EE"/>
<path d="M309.085 272.721L310.066 275.288H317.368L316.279 272.721H309.085Z" fill="#7B70EE"/>
<path d="M330.811 267.304L329.395 264.37H322.495L323.827 267.304H330.811Z" fill="#7B70EE"/>
<path d="M317.699 272.721L318.788 275.288H326.016L324.851 272.721H317.699Z" fill="#7B70EE"/>
<path d="M211.863 268.547L211.333 271.48H218.34L218.702 268.547H211.863Z" fill="#7B70EE"/>
<path d="M115.23 268.547L113.47 271.48H120.533L122.034 268.547H115.23Z" fill="#7B70EE"/>
<path d="M245.171 272.721L245.489 275.288H252.715L252.251 272.721H245.171Z" fill="#7B70EE"/>
<path d="M138.508 272.721L137.343 275.288H144.57L145.66 272.721H138.508Z" fill="#7B70EE"/>
<path d="M226.684 272.721H219.514L219.198 275.288H226.574L226.684 272.721Z" fill="#7B70EE"/>
<path d="M322.392 267.304L321.063 264.37H314.149L315.396 267.304H322.392Z" fill="#7B70EE"/>
<path d="M121.362 272.721L120.049 275.288H127.248L128.487 272.721H121.362Z" fill="#7B70EE"/>
<path d="M259.991 264.37L260.607 267.304H267.256L266.558 264.37H259.991Z" fill="#7B70EE"/>
<path d="M291.886 272.721L292.683 275.288H299.9L299.066 272.721H291.886Z" fill="#7B70EE"/>
<path d="M261.744 272.721L262.281 275.288H269.16L268.549 272.721H261.744Z" fill="#7B70EE"/>
<path d="M297.308 267.304L296.356 264.37H289.297L290.206 267.304H297.308Z" fill="#7B70EE"/>
<path d="M305.615 267.304L304.493 264.37H297.735L298.687 267.304H305.615Z" fill="#7B70EE"/>
<path d="M253.588 272.721L254.052 275.288H260.938L260.4 272.721H253.588Z" fill="#7B70EE"/>
<path d="M300.445 272.721L301.28 275.288H308.665L307.684 272.721H300.445Z" fill="#7B70EE"/>
<path d="M120.242 260.195L118.482 263.129H124.803L126.303 260.195H120.242Z" fill="#7B70EE"/>
<path d="M334.872 272.721L336.111 275.288H343.309L341.995 272.721H334.872Z" fill="#7B70EE"/>
<path d="M122.626 256.222L120.987 258.953H126.938L128.334 256.222H122.626Z" fill="#7B70EE"/>
<path d="M313.975 267.304L312.729 264.37H305.894L307.016 267.304H313.975Z" fill="#7B70EE"/>
<path d="M209.307 275.288L209.771 272.721H147.081L145.989 275.288H209.307Z" fill="#7B70EE"/>
<path d="M269.9 272.721L270.511 275.288H276.405L275.719 272.721H269.9Z" fill="#7B70EE"/>
<path d="M220.699 263.129H227.095L227.22 260.195H221.061L220.699 263.129Z" fill="#7B70EE"/>
<path d="M348.127 268.547H341.324L344.772 275.288H352.173L348.127 268.547Z" fill="#7B70EE"/>
<path d="M340.691 267.304H347.383L345.621 264.37H339.191L340.691 267.304Z" fill="#7B70EE"/>
<path d="M339.227 267.304L337.727 264.37H330.842L332.258 267.304H339.227Z" fill="#7B70EE"/>
<path d="M217.87 275.288L218.187 272.721H211.108L210.644 275.288H217.87Z" fill="#7B70EE"/>
<path d="M228.004 272.721L227.893 275.288H244.162L243.843 272.721H228.004Z" fill="#7B70EE"/>
<path d="M326.286 272.721L327.45 275.288H334.664L333.425 272.721H326.286Z" fill="#7B70EE"/>
<path d="M281.777 267.304L280.908 264.37H274.849L275.632 267.304H281.777Z" fill="#7B70EE"/>
<path d="M277.078 272.721L277.765 275.288H284.139L283.379 272.721H277.078Z" fill="#7B70EE"/>
<path d="M117.735 264.37L115.976 267.304H122.668L124.168 264.37H117.735Z" fill="#7B70EE"/>
<path d="M135.13 258.953L136.449 256.222H129.798L128.401 258.953H135.13Z" fill="#7B70EE"/>
<path d="M129.934 272.721L128.695 275.288H135.908L137.073 272.721H129.934Z" fill="#7B70EE"/>
<path d="M226.916 267.304L227.042 264.37H220.546L220.184 267.304H226.916Z" fill="#7B70EE"/>
<path d="M251.496 268.547H244.657L245.019 271.48H252.026L251.496 268.547Z" fill="#7B70EE"/>
<path d="M272.979 297.154H190.38C190.029 297.154 189.708 297.001 189.499 296.735C189.291 296.47 189.231 296.136 189.334 295.819L194.585 279.744C194.728 279.309 195.148 279.017 195.631 279.017H267.729C268.212 279.017 268.632 279.31 268.775 279.744L274.026 295.819C274.13 296.136 274.069 296.47 273.861 296.735C273.651 297.001 273.33 297.154 272.979 297.154ZM195.63 279.937C195.577 279.937 195.533 279.968 195.517 280.016L190.267 296.091C190.251 296.135 190.268 296.169 190.284 296.19C190.3 296.21 190.329 296.234 190.379 296.234H272.979C273.028 296.234 273.058 296.21 273.074 296.19C273.09 296.169 273.106 296.135 273.092 296.091L267.841 280.015C267.826 279.969 267.779 279.937 267.728 279.937H195.63Z" fill="#7B70EE"/>
<path d="M271.791 133.419L182.067 146.748L268.336 187.405L357.689 174.888L271.791 133.419Z" fill="#1C1C84"/>
<path d="M182.067 146.748V148.682L268.401 191.18L357.689 176.739V174.888L268.336 187.405L182.067 146.748Z" fill="#2525AD"/>
<path d="M215.439 192.49L214.064 201.082C214.064 201.082 250.908 228.946 302.858 215.246L303.653 208.532C257.734 215.769 228.828 201.748 215.439 192.49Z" fill="#2525AD"/>
<path d="M324.826 237.733C320.018 234.141 316.612 228.843 314.99 223.268C314.87 222.855 314.284 223.004 314.216 223.359C314.107 223.221 313.887 223.202 313.711 223.288C313.627 223.001 313.131 222.87 312.94 223.217C309.644 229.238 312.19 236.038 314.396 241.993C314.569 242.461 315.12 242.209 314.945 241.74C313.219 237.078 311.371 231.859 312.422 226.949C311.836 233.157 314.032 239.516 318.055 244.443C318.346 244.798 318.797 244.371 318.505 244.013C314.853 239.54 312.965 233.864 313.16 228.227C313.272 230.447 313.638 232.662 314.392 234.756C315.548 237.964 317.479 241.027 319.413 243.867C319.697 244.286 320.146 243.855 319.862 243.438C318.003 240.707 316.4 237.774 315.241 234.708C314.743 233.395 314.417 232.018 314.208 230.622C315.319 235.138 317.635 239.383 320.963 242.83C321.313 243.192 321.777 242.871 321.422 242.503C317.775 238.727 315.583 233.892 314.678 228.903C316.017 233.575 318.485 237.994 321.747 241.789C322.076 242.173 322.42 241.757 322.087 241.369C318.904 237.664 316.799 233.332 315.485 228.773C317.255 233.475 319.553 238.011 323.612 241.355C324.01 241.682 324.445 241.303 324.048 240.976C321.26 238.679 319.423 235.577 317.925 232.465C319.55 235.186 321.504 237.728 323.772 240.026C324.131 240.389 324.434 239.811 324.079 239.452C322.084 237.431 320.553 235.192 319.07 232.825C320.598 234.752 322.372 236.507 324.383 238.009C324.794 238.317 325.24 238.043 324.826 237.733Z" fill="#F0C64B"/>
<path d="M316.376 172.67C314.501 170.56 311.971 169.173 309.379 167.989C304.224 165.635 298.498 164.612 292.911 163.616C285.014 162.209 276.935 160.906 270.368 156.218C270.113 156.036 269.867 156.128 269.72 156.313C269.707 156.324 269.698 156.338 269.687 156.351C269.683 156.358 269.678 156.362 269.673 156.369C269.516 156.552 269.472 156.816 269.707 157.027C274.519 161.36 280.953 163.505 287.286 165.015C293.686 166.541 300.218 167.586 306.344 169.982C306.534 170.056 306.724 170.13 306.914 170.205C306.951 170.219 307.153 170.307 307.155 170.306C307.469 170.449 307.779 170.597 308.092 170.742C309.238 171.278 310.355 171.833 311.405 172.528C312.663 173.362 313.828 174.383 314.636 175.624C315.521 176.982 315.828 178.504 315.795 180.082C315.762 181.724 315.439 183.357 315.155 184.974C314.862 186.649 314.599 188.328 314.325 190.005C313.76 193.473 313.233 196.943 312.836 200.431C311.961 208.11 311.722 215.942 313.188 223.574C313.297 224.14 314.306 224.015 314.26 223.437C313.691 216.195 314.318 208.933 315.396 201.758C315.934 198.188 316.584 194.631 317.247 191.079C317.868 187.745 318.69 184.384 318.981 181.005C319.244 177.942 318.491 175.051 316.376 172.67Z" fill="#F0C64B"/>
<path d="M312.781 224.119C312.874 224.077 312.968 224.038 313.064 224C313.121 223.979 313.119 223.98 313.055 224.002C313.083 223.993 313.11 223.983 313.138 223.975C313.18 223.961 313.222 223.948 313.265 223.936C313.469 223.877 313.678 223.834 313.889 223.806C313.94 223.799 313.992 223.79 314.043 223.787C313.9 223.794 314.067 223.787 314.095 223.785C314.197 223.78 314.301 223.778 314.404 223.78C314.507 223.782 314.609 223.787 314.712 223.797C314.763 223.802 314.815 223.807 314.865 223.813C314.895 223.817 314.924 223.82 314.953 223.825C314.882 223.813 314.877 223.812 314.939 223.823C315.089 223.849 315.221 223.857 315.362 223.786C315.477 223.728 315.59 223.61 315.624 223.488C315.693 223.247 315.569 222.895 315.269 222.843C314.243 222.662 313.207 222.776 312.266 223.211C312.009 223.33 311.895 223.673 312.042 223.908C312.197 224.155 312.507 224.247 312.781 224.119Z" fill="#D8A32B"/>
<path d="M312.672 223.115C312.765 223.073 312.859 223.034 312.954 222.996C313.011 222.975 313.009 222.976 312.945 222.998C312.974 222.989 313.001 222.98 313.029 222.971C313.071 222.958 313.113 222.944 313.155 222.932C313.359 222.873 313.568 222.829 313.78 222.802C313.831 222.795 313.883 222.786 313.933 222.783C313.791 222.791 313.957 222.783 313.985 222.781C314.088 222.776 314.192 222.774 314.294 222.776C314.397 222.778 314.501 222.783 314.603 222.794C314.654 222.799 314.705 222.804 314.756 222.81C314.785 222.814 314.814 222.818 314.844 222.822C314.772 222.81 314.767 222.809 314.83 222.82C314.98 222.847 315.112 222.854 315.252 222.783C315.368 222.725 315.481 222.606 315.515 222.485C315.584 222.244 315.46 221.892 315.159 221.84C314.132 221.659 313.098 221.773 312.156 222.208C311.9 222.327 311.786 222.671 311.933 222.905C312.087 223.151 312.396 223.243 312.672 223.115Z" fill="#D8A32B"/>
<path d="M306.351 188.314L306.797 184.97L268.401 191.18L220.066 167.386L219.03 173.009L267.436 195.963L306.351 188.314Z" fill="#0C0C5B"/>
<path d="M267.436 195.963L219.029 173.009L215.44 192.49C228.828 201.748 257.734 215.769 303.654 208.533L306.351 188.314L267.436 195.963Z" fill="#1C1C84"/>
<path d="M208.756 222.395C210.898 227.83 206.295 234.454 198.474 237.188C190.654 239.923 186.189 236.475 183.061 231.481C178.486 224.176 182.896 220.237 190.716 217.502C198.538 214.769 206.613 216.959 208.756 222.395Z" fill="#FFF6DC"/>
<path d="M130.66 162.526C130.66 162.526 150.068 181.351 165.972 215.141C165.972 215.141 173.514 233.484 178.463 238.07C178.463 238.07 174.458 233.819 180.574 227.032C185.066 222.047 191.618 218.993 198.554 218.762C202.429 218.632 206.478 219.396 208.783 222.465C208.783 222.465 182.899 193.744 165.988 168.964C159.231 159.063 156.033 150.883 154.629 144.63C154.629 144.63 153.354 143.217 150.815 142.036C141.478 137.693 130.48 143.539 128.851 153.227C128.698 154.131 128.603 155.094 128.578 156.118C128.578 156.118 128.444 160.412 130.66 162.526Z" fill="white"/>
<path d="M178.463 238.071C178.463 238.071 186.958 247.725 206.196 236.141C206.196 236.141 218.104 228.658 212.16 215.625C212.16 215.625 199.811 206.954 190.074 195.963C180.337 184.972 168.294 170.008 158.3 150.216L155.753 148.764C155.753 148.764 157.589 158.15 169.483 173.965C181.376 189.781 203.315 216.259 203.315 216.259L206.671 220.067C208.597 222.253 209.258 225.255 208.195 227.914C206.679 231.699 202.233 236.183 189.819 236.864L182.067 225.526C182.067 225.526 174.539 231.399 178.463 238.071Z" fill="#F4E7BD"/>
<path d="M197.254 203.313C197.254 203.313 174.958 181.414 159.327 146.748C159.327 146.748 156.508 142.528 154.715 140.58C154.715 140.58 168.302 180.14 197.254 203.313Z" fill="white"/>
<path d="M156.247 196.958C160.938 188.989 171.074 183.718 180.723 184.174C184.158 184.336 184.148 180.313 180.723 180.151C169.28 179.61 157.934 184.99 152.385 194.421C152.385 194.421 154.579 199.791 156.247 196.958Z" fill="#F0C64B"/>
<path d="M121.705 211.607H77.9458C72.1445 211.607 67.3982 207.136 67.3982 201.672V180.206C67.3982 174.742 72.1445 170.271 77.9458 170.271H121.705C127.506 170.271 132.252 174.742 132.252 180.206V201.672C132.252 207.136 127.506 211.607 121.705 211.607Z" fill="#2525AD"/>
<path d="M92.8649 190.94V183.37L99.826 187.154L106.786 190.94L99.826 194.725L92.8649 198.51V190.94Z" fill="#D5CBFB"/>
<path d="M87.155 120.44C87.155 107.819 76.2928 97.5887 62.8947 97.5887C49.4967 97.5887 38.6345 107.819 38.6345 120.44C38.6345 129.587 44.3418 137.475 52.5838 141.126V148.414H73.2067V141.126C81.4477 137.475 87.155 129.587 87.155 120.44Z" fill="white"/>
<path d="M73.8706 152.18H51.9193C50.8189 152.18 49.9196 151.333 49.9196 150.297C49.9196 149.26 50.8189 148.413 51.9193 148.413H73.8717C74.971 148.413 75.8714 149.26 75.8714 150.297C75.8703 151.333 74.971 152.18 73.8706 152.18Z" fill="#F0C64B"/>
<path d="M62.895 162.869C58.4653 162.869 54.8745 159.487 54.8745 155.314V154.065H70.9165V155.314C70.9154 159.487 67.3246 162.869 62.895 162.869Z" fill="#F0C64B"/>
<path d="M73.8706 155.947H51.9193C50.8189 155.947 49.9196 155.099 49.9196 154.064C49.9196 153.028 50.8189 152.18 51.9193 152.18H73.8717C74.971 152.18 75.8714 153.027 75.8714 154.064C75.8703 155.1 74.971 155.947 73.8706 155.947Z" fill="#D8A32B"/>
<path d="M65.1013 148.414H63.9641V116.668C63.9641 116.113 63.4842 115.661 62.8951 115.661C62.3049 115.661 61.825 116.113 61.825 116.668V148.414H60.6879V116.668C60.6879 115.522 61.678 114.59 62.8951 114.59C64.1122 114.59 65.1013 115.522 65.1013 116.668V148.414Z" fill="#F0C64B"/>
<path d="M24.7633 112.649L24.0974 115.92L34.2375 117.75C34.3737 116.634 34.5813 115.54 34.8558 114.469L24.7633 112.649Z" fill="#7B70EE"/>
<path d="M32.7958 97.5887L30.6577 100.245L38.7452 106.012C39.3926 105.08 40.0996 104.187 40.8605 103.34L32.7958 97.5887Z" fill="#7B70EE"/>
<path d="M46.9717 87.4163L43.8132 88.914L48.3596 97.4034C49.3746 96.8444 50.4263 96.3394 51.5148 95.8985L46.9717 87.4163Z" fill="#7B70EE"/>
<path d="M101.693 115.92L101.027 112.649L90.9331 114.469C91.2077 115.539 91.4163 116.634 91.5514 117.75L101.693 115.92Z" fill="#7B70EE"/>
<path d="M95.1313 100.245L92.9932 97.5887L84.9285 103.34C85.6894 104.188 86.3953 105.08 87.0438 106.012L95.1313 100.245Z" fill="#7B70EE"/>
<path d="M81.9762 88.914L78.8178 87.4163L74.2736 95.8996C75.362 96.3404 76.4138 96.8454 77.4288 97.4044L81.9762 88.914Z" fill="#7B70EE"/>
<path d="M64.7023 93.7584L64.6148 84.094L61.0769 84.1245L61.1655 93.7523C61.7384 93.7207 62.3135 93.6993 62.8939 93.6993C63.5025 93.7003 64.1046 93.7237 64.7023 93.7584Z" fill="#7B70EE"/>
<path d="M421.253 294.971H318.728V314.012H421.253V294.971Z" fill="#F0C64B"/>
<path d="M328.627 294.971H324.498V314.012H328.627V294.971Z" fill="#D8A32B"/>
<path d="M334.826 294.971H330.696V314.012H334.826V294.971Z" fill="#D8A32B"/>
<path d="M409.285 294.971H405.155V314.012H409.285V294.971Z" fill="#D8A32B"/>
<path d="M415.482 294.971H411.352V314.012H415.482V294.971Z" fill="#D8A32B"/>
<path d="M431.117 284.361V281.432C431.117 277.268 427.521 273.882 423.102 273.882H331.726V291.911H423.102C427.521 291.911 431.117 288.524 431.117 284.361Z" fill="white"/>
<path d="M423.101 270.709H331.127V272.296V273.882H423.101C427.521 273.882 431.116 277.269 431.116 281.431V284.361C431.116 288.524 427.52 291.91 423.101 291.91H331.127V293.497V295.083H423.101C429.378 295.083 434.485 290.273 434.485 284.361V281.431C434.485 275.519 429.378 270.709 423.101 270.709Z" fill="#2525AD"/>
<path d="M424.891 277.918H331.725V279.361H424.891V277.918Z" fill="#F5F5FF"/>
<path d="M424.891 282.263H331.724V283.706H424.891V282.263Z" fill="#F5F5FF"/>
<path d="M424.891 286.609H331.724V288.052H424.891V286.609Z" fill="#F5F5FF"/>
<path d="M323.892 261.167V258.529C323.892 254.78 327.13 251.731 331.109 251.731H413.389V267.965H331.109C327.131 267.965 323.892 264.916 323.892 261.167Z" fill="white"/>
<path d="M331.109 248.874H413.928V250.302V251.731H331.109C327.13 251.731 323.892 254.78 323.892 258.529V261.167C323.892 264.916 327.13 267.965 331.109 267.965H413.928V269.394V270.822H331.109C325.457 270.822 320.859 266.491 320.859 261.167V258.529C320.859 253.205 325.457 248.874 331.109 248.874Z" fill="#F0C64B"/>
<path d="M329.498 256.664H413.39V255.365H329.498V256.664Z" fill="#F5F5FF"/>
<path d="M329.498 260.577H413.39V259.277H329.498V260.577Z" fill="#F5F5FF"/>
<path d="M329.498 264.49H413.39V263.191H329.498V264.49Z" fill="#F5F5FF"/>
<path d="M158.573 46.4272C162.446 46.4272 165.585 49.2943 165.585 52.8304V53.8048C166.995 57.5424 167.854 62.4072 167.854 67.7413C167.854 73.0754 166.994 77.9392 165.585 81.6779V82.6522C165.585 86.1883 162.446 89.0555 158.573 89.0555C153.447 89.0555 149.292 79.5133 149.292 67.7413C149.291 55.9694 153.447 46.4272 158.573 46.4272Z" fill="#F0C64B"/>
<path d="M152.445 68.0122C152.445 75.2126 153.037 81.0507 153.767 81.0507C154.498 81.0507 155.089 75.2136 155.089 68.0122C155.089 60.8118 154.497 54.9736 153.767 54.9736C153.037 54.9747 152.445 60.8118 152.445 68.0122Z" fill="#D8A32B"/>
<path d="M175.403 58.0831V58.9373V77.0881V77.9423C174.925 82.8559 170.127 87.4101 163.695 89.0555V77.0881V58.9373V46.9699C170.127 48.6153 174.925 53.1695 175.403 58.0831Z" fill="#7B70EE"/>
<path d="M163.695 91.3361C164.743 91.3361 165.599 90.5542 165.599 89.5981V46.4272C165.599 45.4711 164.742 44.6882 163.695 44.6882C162.648 44.6882 161.792 45.4701 161.792 46.4272V89.5981C161.791 90.5542 162.648 91.3361 163.695 91.3361Z" fill="#2525AD"/>
<path d="M122.147 46.4272C118.274 46.4272 115.135 49.2943 115.135 52.8304V53.8048C113.724 57.5424 112.866 62.4072 112.866 67.7413C112.866 73.0754 113.725 77.9392 115.135 81.6779V82.6522C115.135 86.1883 118.274 89.0555 122.147 89.0555C127.272 89.0555 131.428 79.5133 131.428 67.7413C131.428 55.9694 127.272 46.4272 122.147 46.4272Z" fill="#F0C64B"/>
<path d="M128.274 68.0122C128.274 75.2126 127.681 81.0507 126.952 81.0507C126.222 81.0507 125.63 75.2136 125.63 68.0122C125.63 60.8118 126.222 54.9736 126.952 54.9736C127.681 54.9747 128.274 60.8118 128.274 68.0122Z" fill="#D8A32B"/>
<path d="M105.316 58.0831V58.9373V77.0881V77.9423C105.794 82.8559 110.592 87.4101 117.024 89.0555V77.0881V58.9373V46.9699C110.592 48.6153 105.794 53.1695 105.316 58.0831Z" fill="#7B70EE"/>
<path d="M117.024 91.3361C115.977 91.3361 115.121 90.5542 115.121 89.5981V46.4272C115.121 45.4711 115.977 44.6882 117.024 44.6882C118.072 44.6882 118.928 45.4701 118.928 46.4272V89.5981C118.928 90.5542 118.071 91.3361 117.024 91.3361Z" fill="#2525AD"/>
<path d="M163.875 20.1546C160.071 17.1969 155.083 15.3245 150.351 14.231C145.494 13.1079 140.42 12.8208 135.453 13.3635C133.954 13.5274 132.461 13.7484 130.984 14.0416C129.974 14.2422 128.864 14.399 127.927 14.8174C126.947 15.2552 125.987 15.7378 125.019 16.1981C122.397 17.4433 119.773 18.6885 117.151 19.9337C116.107 20.4295 116.23 21.8682 117.151 22.3935C119.575 23.7782 122.352 23.9554 125.098 23.543C127.028 23.2529 128.791 22.5778 130.623 21.9802C133.915 20.906 137.471 20.3806 140.947 20.3654C144.046 20.3521 147.19 20.7889 150.053 21.9425C154.289 23.6612 159.357 24.8045 163.569 22.3935C164.334 21.9537 164.649 20.7563 163.875 20.1546Z" fill="#7B70EE"/>
<path d="M141.014 11.7792L141.021 11.7477C140.799 11.7477 140.581 11.7599 140.359 11.763C140.139 11.7599 139.921 11.7477 139.698 11.7477L139.704 11.7792C117.865 12.4349 100.372 29.3058 100.372 50.0355V73.2679C100.372 75.8479 102.592 77.9402 105.332 77.9402V55.0357L105.225 54.4401C103.554 45.1514 105.691 35.484 111.707 27.9588C114.518 24.4441 118.325 21.1341 123.479 18.7424C123.54 18.7139 123.601 18.6864 123.662 18.6579C134.164 13.8359 146.556 13.8359 157.058 18.6579C157.119 18.6864 157.18 18.7139 157.241 18.7424C162.426 21.1483 166.248 24.4838 169.062 28.0209C175.044 35.54 177.162 45.183 175.494 54.4462L175.388 55.0367V77.9412C178.127 77.9412 180.348 75.8499 180.348 73.2689V50.0366C180.347 29.3058 162.853 12.4349 141.014 11.7792Z" fill="#2525AD"/>
<path d="M440.889 95.0494H376.394V182.904H440.889V95.0494Z" fill="#D5CBFB"/>
<path d="M433.927 107.935H383.355V109.88H433.927V107.935Z" fill="#7B70EE"/>
<path d="M433.927 116.861H383.355V118.806H433.927V116.861Z" fill="#7B70EE"/>
<path d="M433.927 125.789H383.355V127.733H433.927V125.789Z" fill="#7B70EE"/>
<path d="M433.927 134.715H383.355V136.66H433.927V134.715Z" fill="#7B70EE"/>
<path d="M433.927 143.641H383.355V145.586H433.927V143.641Z" fill="#7B70EE"/>
<path d="M433.927 152.568H383.355V154.513H433.927V152.568Z" fill="#7B70EE"/>
<path d="M433.928 174.252H383.356V174.787H433.928V174.252Z" fill="white"/>
<path d="M390.265 165.816C392.849 166.225 395.472 166.347 398.084 166.133C400.496 165.936 403.058 165.553 405.309 164.679C406.911 164.057 408.656 162.353 407.532 160.63C406.542 159.112 404.057 158.957 402.411 159.326C400.491 159.756 398.783 160.941 397.616 162.419C396.447 163.898 395.634 166.031 397.017 167.632C398.294 169.11 400.634 169.407 402.518 169.16C403.576 169.022 404.607 168.692 405.533 168.187C405.966 167.951 406.367 167.672 406.751 167.371C407.252 166.98 407.779 166.461 408.456 166.372C409.27 166.266 409.457 166.846 409.975 167.263C410.335 167.554 410.798 167.651 411.261 167.607C411.833 167.552 412.353 167.32 412.883 167.128C413.55 166.885 414.209 166.794 414.923 166.809C418 166.878 421.101 167.263 424.167 167.499C424.714 167.54 424.712 167.059 424.167 167.017C421.885 166.842 419.601 166.346 417.318 166.172C416.276 166.092 415.204 165.942 414.158 166.022C413.174 166.099 412.384 166.579 411.443 166.77C410.385 166.982 410.239 165.98 409.391 165.673C408.639 165.401 407.811 165.63 407.168 166.035C406.383 166.529 405.744 167.173 404.905 167.599C403.965 168.077 402.904 168.364 401.837 168.425C400.107 168.524 397.532 168.027 397.168 166.1C396.835 164.341 398.384 162.526 399.733 161.488C401.119 160.422 402.989 159.717 404.795 160.028C405.654 160.177 406.776 160.558 406.987 161.466C407.233 162.526 406.238 163.381 405.336 163.798C404.282 164.284 403.064 164.533 401.924 164.772C400.66 165.038 399.379 165.225 398.087 165.331C395.554 165.538 393.002 165.654 390.496 165.256C389.955 165.17 389.724 165.73 390.265 165.816Z" fill="#7B70EE"/>
<path d="M462.447 148.377L451.109 142.583L454.442 136.797C455.163 135.545 456.825 135.08 458.155 135.759L464.678 139.094C466.008 139.773 466.501 141.339 465.78 142.591L462.447 148.377Z" fill="#D5CBFB"/>
<path d="M461.647 149.722L450.31 143.927L417.561 200.776L428.899 206.57L461.647 149.722Z" fill="#2525AD"/>
<path d="M457.997 147.863L453.948 145.793L421.2 202.642L425.249 204.711L457.997 147.863Z" fill="#1C1C84"/>
<path d="M464.466 147.857L450.429 140.683L448.957 143.238L462.994 150.412L464.466 147.857Z" fill="#F0C64B"/>
<path d="M428.908 206.597L417.57 200.802L416.42 210.491L420.911 212.787L428.908 206.597Z" fill="#D5CBFB"/>
<path d="M420.912 212.787L416.42 210.491L415.666 216.847L420.912 212.787Z" fill="#2525AD"/>
<path d="M56.9728 49.6619L68.5743 60.5898" stroke="#7B70EE" stroke-width="2.1457" stroke-miterlimit="10"/>
<path d="M68.8082 49.6619L57.2067 60.5898" stroke="#7B70EE" stroke-width="2.1457" stroke-miterlimit="10"/>
<path d="M447.264 213.571L458.865 224.499" stroke="#7B70EE" stroke-width="2.1457" stroke-miterlimit="10"/>
<path d="M459.097 213.571L447.496 224.499" stroke="#7B70EE" stroke-width="2.1457" stroke-miterlimit="10"/>
<path d="M24.2371 175.275L34.5112 184.952" stroke="#2525AD" stroke-width="1.9001" stroke-miterlimit="10"/>
<path d="M34.7163 175.275L24.4432 184.952" stroke="#2525AD" stroke-width="1.9001" stroke-miterlimit="10"/>
<path d="M18.7933 95.0494C18.7933 99.4173 15.0339 102.958 10.3967 102.958C5.75957 102.958 2.00012 99.4173 2.00012 95.0494C2.00012 90.6815 5.75957 87.1403 10.3967 87.1403C15.0339 87.1393 18.7933 90.6805 18.7933 95.0494Z" stroke="#7B70EE" stroke-width="2.1457" stroke-miterlimit="10"/>
<path d="M347.383 88.9597C352.02 88.9597 355.78 85.4187 355.78 81.0507C355.78 76.6826 352.02 73.1416 347.383 73.1416C342.746 73.1416 338.987 76.6826 338.987 81.0507C338.987 85.4187 342.746 88.9597 347.383 88.9597Z" stroke="#7B70EE" stroke-width="2.1457" stroke-miterlimit="10"/>
<path d="M385.689 70.022C385.689 71.1318 384.733 72.0318 383.555 72.0318C382.377 72.0318 381.422 71.1318 381.422 70.022C381.422 68.9122 382.377 68.0121 383.555 68.0121C384.733 68.0121 385.689 68.9122 385.689 70.022Z" stroke="#2525AD" stroke-width="1.9001" stroke-miterlimit="10"/>
<path d="M179.937 3.00984C179.937 4.11964 178.982 5.0197 177.804 5.0197C176.625 5.0197 175.67 4.11964 175.67 3.00984C175.67 1.90005 176.625 1 177.804 1C178.982 1 179.937 1.90005 179.937 3.00984Z" stroke="#2525AD" stroke-width="1.9001" stroke-miterlimit="10"/>
<path d="M43.7886 258.058V262.81C37.009 263.17 31.6066 268.464 31.6066 274.939V278.983C31.6066 285.617 37.2771 291.018 44.2901 291.134C46.8368 304.149 58.9366 314.012 73.4902 314.012C89.8942 314.012 103.192 301.486 103.192 286.035V258.058H43.7886ZM35.78 278.982V274.938C35.78 270.631 39.3114 267.092 43.7886 266.74V286.034C43.7886 286.418 43.8026 286.799 43.8188 287.18C39.3276 286.843 35.78 283.299 35.78 278.982Z" fill="#2525AD"/>
<path d="M88.3957 226.209C84.6168 224.373 79.6521 225.238 76.6147 228.041C76.0699 223.958 71.9505 220.873 67.6312 220.265C63.3107 219.656 58.9276 221.082 55.1368 223.128C51.4195 225.133 47.9487 227.916 46.3911 231.675C44.8335 235.434 45.7058 240.28 49.235 242.566C50.6683 243.495 52.495 243.757 54.2105 243.486C54.4364 244.765 54.9736 245.984 55.8567 246.995C58.8 250.366 64.877 250.699 68.216 247.673C70.7496 249.785 74.6388 250.319 77.7065 248.975C78.3734 248.682 78.9906 248.301 79.5516 247.856C79.3257 250.657 78.1961 253.398 76.2937 255.565C79.9786 254.358 83.1294 251.769 84.9 248.494C86.0609 246.347 86.6068 243.92 86.5344 241.514C89.4031 240.993 92.0352 239.016 92.9691 236.371C94.3127 232.569 92.1757 228.043 88.3957 226.209Z" fill="#D5CBFB"/>
<path d="M221.695 58.2674L221.69 58.2664C221.536 58.2541 221.376 58.247 221.214 58.247C218.054 58.247 215.482 60.6692 215.482 63.6463C215.482 66.6234 218.054 69.0456 221.214 69.0456C221.376 69.0456 221.534 69.0395 221.682 69.0273C224.636 68.7982 226.946 66.4351 226.946 63.6463C226.946 60.8586 224.64 58.4954 221.695 58.2674Z" fill="#2525AD"/>
<path d="M241.783 63.6473C241.783 62.7147 241.397 61.838 240.696 61.1772C239.995 60.5175 239.064 60.154 238.074 60.154H235.951L235.732 59.4779C235.448 58.5962 235.07 57.7379 234.61 56.9264L234.257 56.3033L235.759 54.8881C237.206 53.5258 237.206 51.3093 235.759 49.947C235.059 49.2872 234.127 48.9237 233.136 48.9237C232.145 48.9237 231.214 49.2872 230.514 49.9459L229.011 51.3612L228.35 51.0282C227.488 50.5945 226.577 50.2392 225.641 49.9714L224.924 49.7657V47.7661C224.924 46.1116 223.675 44.6709 221.954 44.342C221.712 44.2962 221.462 44.2728 221.215 44.2728C220.225 44.2728 219.294 44.6362 218.593 45.296C217.893 45.9568 217.507 46.8334 217.507 47.7661V49.7657L216.79 49.9714C215.854 50.2392 214.943 50.5955 214.081 51.0282L213.42 51.3612L211.917 49.9459C210.472 48.5847 208.118 48.5847 206.672 49.9459C205.972 50.6057 205.586 51.4834 205.586 52.417C205.586 53.3507 205.972 54.2273 206.673 54.8871L208.175 56.3023L207.822 56.9254C207.361 57.7369 206.984 58.5952 206.699 59.4769L206.48 60.153H204.357C202.312 60.153 200.649 61.7199 200.649 63.6463C200.649 64.5789 201.035 65.4566 201.735 66.1163C202.436 66.7761 203.367 67.1396 204.357 67.1396H206.48L206.699 67.8146C206.984 68.6963 207.361 69.5547 207.822 70.3661L208.175 70.9892L206.673 72.4045C205.226 73.7668 205.226 75.9833 206.673 77.3456C207.373 78.0044 208.304 78.3678 209.296 78.3678C210.287 78.3678 211.218 78.0044 211.918 77.3446L213.421 75.9293L214.082 76.2623C214.944 76.696 215.855 77.0514 216.791 77.3201L217.508 77.5258V79.5255C217.508 81.4518 219.171 83.0188 221.217 83.0188C221.456 83.0188 221.7 82.9964 221.938 82.9526L222.051 82.9302C222.728 82.7836 223.344 82.4618 223.839 81.9955C224.539 81.3347 224.925 80.4581 224.925 79.5255V77.5258L225.642 77.3201C226.578 77.0524 227.489 76.696 228.351 76.2623L229.012 75.9293L230.515 77.3456C231.213 78.0033 232.145 78.3658 233.137 78.3658C234.129 78.3658 235.061 78.0033 235.76 77.3446C236.46 76.6848 236.846 75.8072 236.846 74.8735C236.846 73.9409 236.46 73.0632 235.759 72.4035L234.257 70.9892L234.61 70.3661C235.071 69.5547 235.448 68.6953 235.733 67.8146L235.952 67.1396H238.075C240.119 67.1406 241.783 65.5737 241.783 63.6473ZM228.888 70.3325C227.106 72.1459 224.69 73.2567 222.082 73.4583C221.803 73.4807 221.509 73.4929 221.214 73.4929C215.451 73.4929 210.762 69.0761 210.762 63.6473C210.762 58.2185 215.451 53.8017 221.214 53.8017C221.511 53.8017 221.807 53.8139 222.094 53.8373C224.692 54.0379 227.106 55.1477 228.889 56.9621C230.681 58.7866 231.668 61.161 231.668 63.6483C231.667 66.1347 230.68 68.509 228.888 70.3325Z" fill="#2525AD"/>
<path d="M380.41 215.758L380.408 215.761C380.363 215.847 380.322 215.936 380.283 216.029C379.542 217.842 380.505 219.887 382.431 220.584C384.356 221.283 386.527 220.375 387.267 218.561C387.305 218.469 387.337 218.377 387.364 218.288C387.909 216.539 386.922 214.66 385.119 214.006C383.317 213.352 381.247 214.122 380.41 215.758Z" fill="#2525AD"/>
<path d="M388.6 205.493C387.997 205.274 387.338 205.29 386.747 205.537C386.156 205.784 385.703 206.233 385.471 206.801L384.972 208.02L384.484 207.987C383.847 207.943 383.203 207.959 382.571 208.032L382.085 208.089L381.522 206.895C380.981 205.746 379.547 205.226 378.327 205.736C377.736 205.984 377.283 206.433 377.05 207.002C376.818 207.57 376.834 208.19 377.097 208.746L377.66 209.94L377.289 210.242C376.807 210.635 376.363 211.074 375.97 211.548L375.669 211.912L374.375 211.442C373.305 211.054 372.08 211.433 371.464 212.343C371.378 212.472 371.304 212.609 371.246 212.751C371.013 213.319 371.031 213.939 371.292 214.496C371.555 215.053 372.032 215.48 372.635 215.698L373.929 216.167L373.893 216.628C373.846 217.227 373.864 217.834 373.942 218.43L374.002 218.888L372.734 219.418C371.515 219.929 370.963 221.279 371.504 222.428C371.767 222.984 372.243 223.412 372.848 223.631C373.451 223.849 374.109 223.834 374.7 223.587L375.968 223.056L376.288 223.406C376.704 223.86 377.171 224.278 377.675 224.648L378.061 224.932L377.563 226.151C377.083 227.324 377.706 228.646 378.953 229.098C379.556 229.317 380.214 229.301 380.805 229.054C381.397 228.807 381.85 228.358 382.082 227.79L382.58 226.571L383.069 226.605C383.706 226.648 384.35 226.632 384.982 226.559L385.467 226.502L386.031 227.696C386.572 228.846 388.005 229.365 389.226 228.855C389.816 228.607 390.27 228.158 390.502 227.589C390.735 227.021 390.719 226.401 390.456 225.844L389.893 224.65L390.263 224.348C390.746 223.955 391.19 223.517 391.582 223.042L391.884 222.679L393.178 223.148C394.424 223.6 395.827 223.013 396.307 221.839C396.363 221.701 396.405 221.557 396.433 221.409L396.445 221.339C396.509 220.916 396.445 220.487 396.259 220.093C395.997 219.537 395.52 219.109 394.917 218.891L393.623 218.422L393.659 217.961C393.704 217.362 393.688 216.755 393.61 216.159L393.549 215.701L394.817 215.171C395.407 214.924 395.859 214.474 396.093 213.905C396.325 213.336 396.309 212.716 396.047 212.16C395.785 211.604 395.308 211.176 394.704 210.958C394.101 210.739 393.442 210.754 392.851 211.001L391.584 211.532L391.264 211.183C390.847 210.728 390.38 210.31 389.878 209.94L389.492 209.656L389.99 208.438C390.469 207.268 389.846 205.945 388.6 205.493ZM389.9 214.461C390.656 215.909 390.806 217.556 390.326 219.1C390.275 219.266 390.214 219.437 390.145 219.606C388.792 222.913 384.836 224.568 381.325 223.295C377.814 222.021 376.057 218.294 377.409 214.987C377.478 214.817 377.556 214.65 377.638 214.492C378.378 213.048 379.662 211.923 381.253 211.326C382.853 210.725 384.62 210.716 386.228 211.3C387.837 211.881 389.14 213.005 389.9 214.461Z" fill="#2525AD"/>
</svg>
